<?xml version="1.0" encoding="UTF-8" standalone="no"?>
<!DOCTYPE svg PUBLIC "-//W3C//DTD SVG 20010904//EN"
              "http://www.w3.org/TR/2001/REC-SVG-20010904/DTD/svg10.dtd">

<svg xmlns="http://www.w3.org/2000/svg"
     width="11.1111in" height="6.94444in"
     viewBox="0 0 800 500">
  <path id="whole_w_01"
        fill="none" stroke="black" stroke-width="1"
        d="M 195.50,352.12
           C 195.50,352.12 196.38,342.38 196.38,342.38
             196.38,342.38 197.38,318.75 197.38,318.75
             197.38,318.75 197.50,299.12 197.50,299.12
             197.50,299.12 199.88,292.62 199.88,292.62
             199.88,292.62 204.88,281.00 204.88,281.00
             204.88,281.00 208.12,275.50 208.12,275.50
             208.12,275.50 212.00,273.75 212.00,273.75
             212.00,273.75 215.62,272.88 215.62,272.88
             215.62,272.88 221.75,273.75 221.75,273.75
             221.75,273.75 243.50,273.62 243.50,273.62
             243.50,273.62 250.38,272.88 250.38,272.88
             250.38,272.88 255.38,274.25 255.38,274.25
             255.38,274.25 258.75,278.38 258.75,278.38
             258.75,278.38 269.25,297.12 269.25,297.12
             269.25,297.12 269.88,350.88 269.88,350.88
             269.88,350.88 268.38,354.00 268.38,354.00
             268.38,354.00 264.50,357.25 264.50,357.25
             264.50,357.25 201.62,357.25 201.62,357.25
             201.62,357.25 198.25,355.25 198.25,355.25
             198.25,355.25 195.50,352.12 195.50,352.12 Z" />
</svg>
