<?xml version="1.0" encoding="UTF-8" standalone="no"?>
<!DOCTYPE svg PUBLIC "-//W3C//DTD SVG 20010904//EN"
              "http://www.w3.org/TR/2001/REC-SVG-20010904/DTD/svg10.dtd">

<svg xmlns="http://www.w3.org/2000/svg"
     width="11.1111in" height="6.94444in"
     viewBox="0 0 800 500">
  <path id="whole_ent_02"
        fill="none" stroke="black" stroke-width="1"
        d="M 648.00,194.18
           C 648.00,194.18 702.18,194.36 702.18,194.36
             702.18,194.36 704.91,192.73 704.91,192.73
             704.91,192.73 706.91,190.18 706.91,190.18
             706.91,190.18 705.82,181.45 705.82,181.45
             705.82,181.45 702.36,156.00 702.36,156.00
             702.36,156.00 697.45,127.27 697.45,127.27
             697.45,127.27 695.27,107.82 695.27,107.82
             695.27,107.82 694.00,100.00 694.00,100.00
             694.00,100.00 690.18,87.82 690.18,87.82
             690.18,87.82 685.82,72.18 685.82,72.18
             685.82,72.18 682.91,66.55 682.73,66.55
             682.55,66.55 675.27,65.45 675.27,65.45
             675.27,65.45 662.73,67.27 662.73,67.27
             662.73,67.27 645.09,67.82 645.09,67.82
             645.09,67.82 621.09,67.27 621.09,67.27
             621.09,67.27 602.73,65.82 602.73,65.82
             602.73,65.82 595.64,64.73 595.64,64.73
             595.64,64.73 590.55,63.82 590.55,63.82
             590.55,63.82 585.64,67.09 585.64,67.09
             585.64,67.09 579.82,82.73 579.82,82.73
             579.82,82.73 575.27,94.36 575.27,94.36
             575.27,94.36 573.82,102.55 573.82,102.55
             573.82,102.55 572.00,118.73 572.00,118.73
             572.00,118.73 570.73,132.18 570.73,132.18
             570.73,132.18 571.27,136.73 571.27,136.73
             571.27,136.73 576.91,139.09 576.91,139.09
             576.91,139.09 589.09,140.91 589.09,140.91
             589.09,140.91 592.18,144.18 592.18,144.18
             592.18,144.18 590.73,162.55 590.73,162.55
             590.73,162.55 589.27,180.00 589.27,180.00
             589.27,180.00 589.45,189.27 589.45,189.27
             589.45,189.27 596.36,193.45 596.36,193.45
             596.36,193.45 648.00,194.18 648.00,194.18 Z" />
</svg>
