<?xml version="1.0" encoding="UTF-8" standalone="no"?>
<!DOCTYPE svg PUBLIC "-//W3C//DTD SVG 20010904//EN"
              "http://www.w3.org/TR/2001/REC-SVG-20010904/DTD/svg10.dtd">

<svg xmlns="http://www.w3.org/2000/svg"
     width="11.1111in" height="6.94444in"
     viewBox="0 0 800 500">
  <path id="whole_d_02"
        fill="none" stroke="black" stroke-width="1"
        d="M 273.00,419.75
           C 273.00,419.75 276.00,422.88 276.00,422.88
             276.00,422.88 281.88,423.50 281.88,423.50
             281.88,423.50 306.00,422.88 306.00,422.88
             306.00,422.88 330.50,423.00 330.50,423.00
             330.50,423.00 340.25,423.38 340.25,423.38
             340.25,423.38 343.88,421.12 343.88,421.12
             343.88,421.12 345.88,418.12 345.88,418.12
             345.88,418.12 345.25,403.62 345.25,403.62
             345.25,403.62 345.25,376.25 345.25,376.25
             345.25,376.25 345.38,365.00 345.38,365.00
             345.38,365.00 344.62,362.00 344.62,362.00
             344.62,362.00 337.88,350.00 337.88,350.00
             337.88,350.00 334.25,344.00 334.25,344.00
             334.25,344.00 330.88,339.88 330.88,339.88
             330.88,339.88 327.50,338.88 327.50,338.88
             327.50,338.88 320.62,339.88 320.62,339.88
             320.62,339.88 308.62,339.88 308.62,339.88
             308.62,339.88 296.00,339.62 296.00,339.62
             296.00,339.62 290.12,338.88 290.12,338.88
             290.12,338.88 284.88,340.88 284.88,340.88
             284.88,340.88 282.50,344.25 282.50,344.25
             282.50,344.25 275.25,359.38 275.25,359.38
             275.25,359.38 273.75,363.75 273.75,363.75
             273.75,363.75 273.00,393.50 273.00,393.50
             273.00,393.50 272.00,413.88 272.00,413.88
             272.00,413.88 271.75,417.75 271.75,417.75
             271.75,417.75 273.00,419.75 273.00,419.75 Z" />
</svg>
