<?xml version="1.0" encoding="UTF-8" standalone="no"?>
<!DOCTYPE svg PUBLIC "-//W3C//DTD SVG 20010904//EN"
              "http://www.w3.org/TR/2001/REC-SVG-20010904/DTD/svg10.dtd">

<svg xmlns="http://www.w3.org/2000/svg"
     width="11.1111in" height="6.94444in"
     viewBox="0 0 800 500">
  <path id="whole_right_02"
        fill="none" stroke="black" stroke-width="1"
        d="M 588.88,421.88
           C 588.88,421.88 592.12,423.25 592.12,423.25
             592.12,423.25 612.50,422.88 612.50,422.88
             612.50,422.88 654.38,423.38 654.38,423.38
             654.38,423.38 657.62,422.25 657.62,422.25
             657.62,422.25 660.75,418.62 660.75,418.62
             660.75,418.62 660.75,416.00 660.75,416.00
             660.75,416.00 660.38,376.88 660.38,376.88
             660.38,376.88 660.75,365.25 660.75,365.25
             660.75,365.25 659.88,361.38 659.88,361.38
             659.88,361.38 657.50,358.25 657.50,358.25
             657.50,358.25 648.88,343.38 648.88,343.38
             648.88,343.38 645.50,340.12 645.50,340.12
             645.50,340.12 640.00,339.12 640.00,339.12
             640.00,339.12 635.50,339.50 635.50,339.50
             635.50,339.50 623.00,340.38 623.00,340.38
             623.00,340.38 609.38,339.12 609.38,339.12
             609.38,339.12 603.00,339.12 603.00,339.12
             603.00,339.12 599.62,341.62 599.62,341.62
             599.62,341.62 595.62,347.38 595.62,347.38
             595.62,347.38 591.38,358.00 591.38,358.00
             591.38,358.00 589.12,363.25 589.12,363.25
             589.12,363.25 588.00,395.88 588.00,395.88
             588.00,395.88 587.12,409.88 587.12,409.88
             587.12,409.88 587.00,418.25 587.00,418.25
             587.00,418.25 588.88,421.88 588.88,421.88 Z" />
</svg>
