<?xml version="1.0" encoding="UTF-8" standalone="no"?>
<!DOCTYPE svg PUBLIC "-//W3C//DTD SVG 20010904//EN"
              "http://www.w3.org/TR/2001/REC-SVG-20010904/DTD/svg10.dtd">

<svg xmlns="http://www.w3.org/2000/svg"
     width="11.1111in" height="6.94444in"
     viewBox="0 0 800 500">
  <path id="whole_down_01"
        fill="none" stroke="black" stroke-width="1"
        d="M 513.00,421.88
           C 513.00,421.88 516.38,423.75 516.38,423.75
             516.38,423.75 534.50,423.75 534.50,423.75
             534.50,423.75 564.12,423.50 564.12,423.50
             564.12,423.50 579.50,423.38 579.50,423.38
             579.50,423.38 582.75,421.62 582.75,421.62
             582.75,421.62 584.62,418.25 584.62,418.25
             584.62,418.25 584.38,407.75 584.38,407.75
             584.38,407.75 584.25,364.50 584.25,364.50
             584.25,364.50 583.12,361.38 583.12,361.38
             583.12,361.38 573.88,344.75 573.88,344.75
             573.88,344.75 571.50,341.50 571.50,341.50
             571.50,341.50 568.25,339.62 568.25,339.62
             568.25,339.62 556.12,339.88 556.12,339.88
             556.12,339.88 537.62,339.62 537.62,339.62
             537.62,339.62 532.00,339.12 532.00,339.12
             532.00,339.12 525.50,340.00 525.50,340.00
             525.50,340.00 522.12,343.88 522.12,343.88
             522.12,343.88 514.50,359.88 514.50,359.88
             514.50,359.88 512.62,365.12 512.62,365.12
             512.62,365.12 512.00,395.75 512.00,395.75
             512.00,395.75 511.62,408.88 511.62,408.88
             511.62,408.88 510.88,418.12 510.88,418.12
             510.88,418.12 513.00,421.88 513.00,421.88 Z" />
</svg>
