<?xml version="1.0" encoding="UTF-8" standalone="no"?>
<!DOCTYPE svg PUBLIC "-//W3C//DTD SVG 20010904//EN"
              "http://www.w3.org/TR/2001/REC-SVG-20010904/DTD/svg10.dtd">

<svg xmlns="http://www.w3.org/2000/svg"
     width="11.1111in" height="6.94444in"
     viewBox="0 0 800 500">
  <path id="whole_up_01"
        fill="none" stroke="black" stroke-width="1"
        d="M 513.38,355.50
           C 513.38,355.50 517.25,357.25 517.25,357.25
             517.25,357.25 541.88,357.25 541.88,357.25
             541.88,357.25 578.62,357.25 578.62,357.25
             578.62,357.25 582.25,355.00 582.25,355.00
             582.25,355.00 584.50,352.25 584.50,352.25
             584.50,352.25 584.38,327.62 584.38,327.62
             584.38,327.62 584.62,304.12 584.62,304.12
             584.62,304.12 584.25,297.50 584.25,297.50
             584.25,297.50 580.88,290.38 580.88,290.38
             580.88,290.38 573.62,278.75 573.62,278.75
             573.62,278.75 570.38,274.88 570.38,274.88
             570.38,274.88 564.50,273.00 564.50,273.00
             564.50,273.00 557.88,274.12 557.88,274.12
             557.88,274.12 536.12,273.75 536.12,273.75
             536.12,273.75 530.38,272.75 530.38,272.75
             530.38,272.75 523.62,274.88 523.62,274.88
             523.62,274.88 519.50,282.25 519.50,282.25
             519.50,282.25 513.88,294.38 513.88,294.38
             513.88,294.38 512.75,300.75 512.75,300.75
             512.75,300.75 512.12,329.38 512.12,329.38
             512.12,329.38 511.00,342.88 511.00,342.88
             511.00,342.88 510.50,352.12 510.50,352.12
             510.50,352.12 513.38,355.50 513.38,355.50 Z" />
</svg>
