<?xml version="1.0" encoding="UTF-8" standalone="no"?>
<!DOCTYPE svg PUBLIC "-//W3C//DTD SVG 20010904//EN"
              "http://www.w3.org/TR/2001/REC-SVG-20010904/DTD/svg10.dtd">

<svg xmlns="http://www.w3.org/2000/svg"
     width="11.1111in" height="6.94444in"
     viewBox="0 0 800 500">
  <path id="whole_esc_03"
        fill="none" stroke="black" stroke-width="1"
        d="M 110.38,109.38
           C 110.38,109.38 113.62,108.25 113.62,108.25
             113.62,108.25 116.25,104.00 116.25,104.00
             116.25,104.00 116.50,82.38 116.50,82.38
             116.50,82.38 116.75,51.38 116.75,51.38
             116.75,51.38 115.12,46.88 115.12,46.88
             115.12,46.88 105.38,29.75 105.38,29.75
             105.38,29.75 102.25,26.12 102.25,26.12
             102.25,26.12 98.00,25.00 98.00,25.00
             98.00,25.00 90.62,25.62 90.62,25.62
             90.62,25.62 68.88,25.75 68.88,25.75
             68.88,25.75 63.50,24.62 63.50,24.62
             63.50,24.62 58.62,24.75 58.62,24.75
             58.62,24.75 54.12,29.88 54.12,29.88
             54.12,29.88 45.50,47.50 45.50,47.50
             45.50,47.50 43.25,105.12 43.25,105.12
             43.25,105.12 47.62,109.12 47.62,109.12
             47.62,109.12 110.38,109.38 110.38,109.38 Z" />
</svg>
