<?xml version="1.0" encoding="UTF-8" standalone="no"?>
<!DOCTYPE svg PUBLIC "-//W3C//DTD SVG 20010904//EN"
              "http://www.w3.org/TR/2001/REC-SVG-20010904/DTD/svg10.dtd">

<svg xmlns="http://www.w3.org/2000/svg"
     width="11.1111in" height="6.94444in"
     viewBox="0 0 800 500">
  <path id="whole_left_01"
        fill="none" stroke="black" stroke-width="1"
        d="M 435.50,419.50
           C 435.50,419.50 437.50,421.62 437.50,421.62
             437.50,421.62 440.25,423.25 440.25,423.25
             440.25,423.25 503.25,423.38 503.25,423.38
             503.25,423.38 506.62,421.38 506.62,421.38
             506.62,421.38 508.75,418.50 508.75,418.50
             508.75,418.50 508.75,364.88 508.75,364.88
             508.75,364.88 507.25,360.38 507.25,360.38
             507.25,360.38 502.00,352.00 502.00,352.00
             502.00,352.00 497.38,344.12 497.38,344.12
             497.38,344.12 495.38,341.25 495.38,341.25
             495.38,341.25 490.50,338.88 490.50,338.88
             490.50,338.88 484.75,339.88 484.75,339.88
             484.75,339.88 470.75,340.12 470.75,340.12
             470.75,340.12 458.38,339.62 458.38,339.62
             458.38,339.62 452.38,339.00 452.38,339.00
             452.38,339.00 449.00,340.00 449.00,340.00
             449.00,340.00 446.12,343.38 446.12,343.38
             446.12,343.38 437.50,361.00 437.50,361.00
             437.50,361.00 436.75,366.25 436.75,366.25
             436.75,366.25 436.00,393.38 436.00,393.38
             436.00,393.38 435.12,408.62 435.12,408.62
             435.12,408.62 434.62,414.50 434.62,414.50
             434.62,414.50 435.50,419.50 435.50,419.50 Z" />
</svg>
