<?xml version="1.0" encoding="UTF-8" standalone="no"?>
<!DOCTYPE svg PUBLIC "-//W3C//DTD SVG 20010904//EN"
              "http://www.w3.org/TR/2001/REC-SVG-20010904/DTD/svg10.dtd">

<svg xmlns="http://www.w3.org/2000/svg"
     width="11.1111in" height="6.94444in"
     viewBox="0 0 800 500">
  <path id="whole_left_02"
        fill="none" stroke="black" stroke-width="1"
        d="M 440.75,423.38
           C 440.75,423.38 503.25,423.38 503.25,423.38
             503.25,423.38 506.75,422.00 506.75,422.00
             506.75,422.00 508.38,418.88 508.38,418.88
             508.38,418.88 508.38,410.38 508.38,410.38
             508.38,410.38 508.12,383.12 508.12,383.12
             508.12,383.12 508.50,364.50 508.50,364.50
             508.50,364.50 507.62,361.38 507.62,361.38
             507.62,361.38 497.75,344.62 497.75,344.62
             497.75,344.62 495.38,341.00 495.38,341.00
             495.38,341.00 491.50,339.00 491.50,339.00
             491.50,339.00 483.25,339.50 483.25,339.50
             483.25,339.50 471.00,339.88 471.00,339.88
             471.00,339.88 459.12,339.75 459.12,339.75
             459.12,339.75 453.00,338.88 453.00,338.88
             453.00,338.88 448.12,340.50 448.12,340.50
             448.12,340.50 445.38,345.12 445.38,345.12
             445.38,345.12 438.00,360.00 438.00,360.00
             438.00,360.00 437.00,364.00 437.00,364.00
             437.00,364.00 436.00,396.00 436.00,396.00
             436.00,396.00 435.25,409.75 435.25,409.75
             435.25,409.75 435.00,418.00 435.00,418.00
             435.00,418.00 437.12,421.25 437.12,421.25
             437.12,421.25 440.75,423.38 440.75,423.38 Z" />
</svg>
