<?xml version="1.0" encoding="UTF-8" standalone="no"?>
<!DOCTYPE svg PUBLIC "-//W3C//DTD SVG 20010904//EN"
              "http://www.w3.org/TR/2001/REC-SVG-20010904/DTD/svg10.dtd">

<svg xmlns="http://www.w3.org/2000/svg"
     width="11.1111in" height="6.94444in"
     viewBox="0 0 800 500">
  <path id="whole_right_03"
        fill="none" stroke="black" stroke-width="1"
        d="M 589.25,421.88
           C 589.25,421.88 592.38,423.62 592.38,423.62
             592.38,423.62 606.38,423.25 606.38,423.25
             606.38,423.25 638.38,423.50 638.38,423.50
             638.38,423.50 655.12,423.75 655.12,423.75
             655.12,423.75 658.62,421.50 658.62,421.50
             658.62,421.50 660.88,418.38 660.88,418.38
             660.88,418.38 660.88,410.25 660.88,410.25
             660.88,410.25 660.12,392.12 660.12,392.12
             660.12,392.12 660.38,368.62 660.38,368.62
             660.38,368.62 660.38,364.00 660.38,364.00
             660.38,364.00 658.12,359.62 658.12,359.62
             658.12,359.62 651.88,349.00 651.88,349.00
             651.88,349.00 649.25,343.62 649.25,343.62
             649.25,343.62 646.25,340.12 646.25,340.12
             646.25,340.12 641.38,339.00 641.38,339.00
             641.38,339.00 634.12,339.88 634.12,339.88
             634.12,339.88 615.75,339.75 615.75,339.75
             615.75,339.75 607.88,338.88 607.88,338.88
             607.88,338.88 601.88,339.25 601.88,339.25
             601.88,339.25 597.62,343.75 597.62,343.75
             597.62,343.75 593.12,353.12 593.12,353.12
             593.12,353.12 589.12,362.12 589.12,362.12
             589.12,362.12 588.12,386.12 588.12,386.12
             588.12,386.12 587.75,400.62 587.75,400.62
             587.75,400.62 586.88,408.75 586.88,408.75
             586.88,408.75 586.88,417.62 586.88,417.62
             586.88,417.62 589.25,421.88 589.25,421.88 Z" />
</svg>
