<?xml version="1.0" encoding="UTF-8" standalone="no"?>
<!DOCTYPE svg PUBLIC "-//W3C//DTD SVG 20010904//EN"
              "http://www.w3.org/TR/2001/REC-SVG-20010904/DTD/svg10.dtd">

<svg xmlns="http://www.w3.org/2000/svg"
     width="11.1111in" height="6.94444in"
     viewBox="0 0 800 500">
  <path id="whole_s_03"
        fill="none" stroke="black" stroke-width="1"
        d="M 195.88,419.25
           C 195.88,419.25 200.75,423.50 200.75,423.50
             200.75,423.50 219.50,423.25 219.50,423.25
             219.50,423.25 247.00,423.12 247.00,423.12
             247.00,423.12 263.50,423.75 263.50,423.75
             263.50,423.75 267.88,421.50 267.88,421.50
             267.88,421.50 269.75,418.25 269.75,418.25
             269.75,418.25 269.38,388.00 269.38,388.00
             269.38,388.00 269.38,364.25 269.38,364.25
             269.38,364.25 267.88,360.75 267.88,360.75
             267.88,360.75 258.75,344.75 258.75,344.75
             258.75,344.75 256.12,341.12 256.12,341.12
             256.12,341.12 251.88,339.25 251.88,339.25
             251.88,339.25 242.25,339.62 242.25,339.62
             242.25,339.62 222.88,339.38 222.88,339.38
             222.88,339.38 216.12,339.12 216.12,339.12
             216.12,339.12 210.12,339.75 210.12,339.75
             210.12,339.75 207.12,344.00 207.12,344.00
             207.12,344.00 199.38,360.50 199.38,360.50
             199.38,360.50 198.12,363.12 198.12,363.12
             198.12,363.12 197.62,379.12 197.62,379.12
             197.62,379.12 196.75,400.88 196.75,400.88
             196.75,400.88 196.25,409.12 196.25,409.12
             196.25,409.12 195.88,419.25 195.88,419.25 Z" />
</svg>
