<?xml version="1.0" encoding="UTF-8" standalone="no"?>
<!DOCTYPE svg PUBLIC "-//W3C//DTD SVG 20010904//EN"
              "http://www.w3.org/TR/2001/REC-SVG-20010904/DTD/svg10.dtd">

<svg xmlns="http://www.w3.org/2000/svg"
     width="11.1111in" height="6.94444in"
     viewBox="0 0 800 500">
  <path id="whole_left_03"
        fill="none" stroke="black" stroke-width="1"
        d="M 436.75,421.38
           C 436.75,421.38 439.38,423.25 439.38,423.25
             439.38,423.25 444.38,423.88 444.38,423.88
             444.38,423.88 471.88,423.12 471.88,423.12
             471.88,423.12 502.50,423.75 502.50,423.75
             502.50,423.75 506.00,422.25 506.00,422.25
             506.00,422.25 508.50,418.88 508.50,418.88
             508.50,418.88 508.50,414.88 508.50,414.88
             508.50,414.88 508.12,392.00 508.12,392.00
             508.12,392.00 508.62,363.75 508.62,363.75
             508.62,363.75 507.38,361.00 507.38,361.00
             507.38,361.00 504.00,355.12 504.00,355.12
             504.00,355.12 497.75,344.75 497.75,344.75
             497.75,344.75 495.12,340.88 495.12,340.88
             495.12,340.88 490.88,339.00 490.88,339.00
             490.88,339.00 482.12,340.00 482.12,340.00
             482.12,340.00 459.38,340.00 459.38,340.00
             459.38,340.00 457.00,339.00 457.00,339.00
             457.00,339.00 450.88,338.88 450.88,338.88
             450.88,338.88 447.38,340.88 447.38,340.88
             447.38,340.88 444.75,345.50 444.75,345.50
             444.75,345.50 438.25,359.25 438.25,359.25
             438.25,359.25 436.62,364.75 436.62,364.75
             436.62,364.75 435.88,396.00 435.88,396.00
             435.88,396.00 435.00,409.38 435.00,409.38
             435.00,409.38 434.38,418.12 434.38,418.12
             434.38,418.12 436.75,421.38 436.75,421.38 Z" />
</svg>
