<?xml version="1.0" encoding="UTF-8" standalone="no"?>
<!DOCTYPE svg PUBLIC "-//W3C//DTD SVG 20010904//EN"
              "http://www.w3.org/TR/2001/REC-SVG-20010904/DTD/svg10.dtd">

<svg xmlns="http://www.w3.org/2000/svg"
     width="11.1111in" height="6.94444in"
     viewBox="0 0 800 500">
  <path id="whole_down_02"
        fill="none" stroke="black" stroke-width="1"
        d="M 512.38,421.38
           C 512.38,421.38 516.62,424.00 516.62,424.00
             516.62,424.00 537.38,423.50 537.38,423.50
             537.38,423.50 562.25,423.38 562.25,423.38
             562.25,423.38 578.88,423.50 578.88,423.50
             578.88,423.50 582.25,421.75 582.25,421.75
             582.25,421.75 584.88,418.62 584.88,418.62
             584.88,418.62 584.50,406.50 584.50,406.50
             584.50,406.50 584.50,364.88 584.50,364.88
             584.50,364.88 582.88,360.50 582.88,360.50
             582.88,360.50 574.75,345.50 574.75,345.50
             574.75,345.50 570.75,341.25 570.75,341.25
             570.75,341.25 565.88,339.12 565.88,339.12
             565.88,339.12 558.62,339.88 558.62,339.88
             558.62,339.88 537.12,339.88 537.12,339.88
             537.12,339.88 529.25,339.25 529.25,339.25
             529.25,339.25 523.62,341.00 523.62,341.00
             523.62,341.00 520.50,346.62 520.50,346.62
             520.50,346.62 514.88,359.75 514.88,359.75
             514.88,359.75 512.62,364.00 512.62,364.00
             512.62,364.00 511.75,406.00 511.75,406.00
             511.75,406.00 510.88,418.12 510.88,418.12
             510.88,418.12 512.38,421.38 512.38,421.38 Z" />
</svg>
