<?xml version="1.0" encoding="UTF-8" standalone="no"?>
<!DOCTYPE svg PUBLIC "-//W3C//DTD SVG 20010904//EN"
              "http://www.w3.org/TR/2001/REC-SVG-20010904/DTD/svg10.dtd">

<svg xmlns="http://www.w3.org/2000/svg"
     width="11.1111in" height="6.94444in"
     viewBox="0 0 800 500">
  <path id="whole_d_01"
        fill="none" stroke="black" stroke-width="1"
        d="M 272.38,419.25
           C 272.38,419.25 274.12,422.12 274.12,422.12
             274.12,422.12 277.38,423.62 277.38,423.62
             277.38,423.62 303.25,423.38 303.25,423.38
             303.25,423.38 338.88,423.50 338.88,423.50
             338.88,423.50 343.25,422.12 343.25,422.12
             343.25,422.12 345.75,418.62 345.75,418.62
             345.75,418.62 345.50,410.88 345.50,410.88
             345.50,410.88 345.12,398.00 345.12,398.00
             345.12,398.00 345.12,377.25 345.12,377.25
             345.12,377.25 345.62,367.50 345.62,367.50
             345.62,367.50 345.12,363.00 345.12,363.00
             345.12,363.00 340.75,355.62 340.75,355.62
             340.75,355.62 335.12,345.50 335.12,345.50
             335.12,345.50 333.50,342.38 333.50,342.38
             333.50,342.38 330.25,340.25 330.25,340.25
             330.25,340.25 326.12,339.00 326.12,339.00
             326.12,339.00 319.00,339.62 319.00,339.62
             319.00,339.62 308.62,340.00 308.62,340.00
             308.62,340.00 295.75,339.62 295.75,339.62
             295.75,339.62 291.25,338.75 291.25,338.75
             291.25,338.75 285.62,339.75 285.62,339.75
             285.62,339.75 282.88,344.00 282.88,344.00
             282.88,344.00 274.88,360.00 274.88,360.00
             274.88,360.00 273.50,364.88 273.50,364.88
             273.50,364.88 273.50,389.62 273.50,389.62
             273.50,389.62 272.62,404.38 272.62,404.38
             272.62,404.38 272.12,415.25 272.12,415.25
             272.12,415.25 272.38,419.25 272.38,419.25 Z" />
</svg>
