<?xml version="1.0" encoding="UTF-8" standalone="no"?>
<!DOCTYPE svg PUBLIC "-//W3C//DTD SVG 20010904//EN"
              "http://www.w3.org/TR/2001/REC-SVG-20010904/DTD/svg10.dtd">

<svg xmlns="http://www.w3.org/2000/svg"
     width="11.1111in" height="6.94444in"
     viewBox="0 0 800 500">
  <path id="whole_right_01"
        fill="none" stroke="black" stroke-width="1"
        d="M 590.50,422.50
           C 590.50,422.50 593.50,423.62 593.50,423.62
             593.50,423.62 619.88,423.12 619.88,423.12
             619.88,423.12 650.75,423.38 650.75,423.38
             650.75,423.38 656.38,423.12 656.38,423.12
             656.38,423.12 659.88,420.50 659.88,420.50
             659.88,420.50 660.75,417.75 660.75,417.75
             660.75,417.75 660.50,396.00 660.50,396.00
             660.50,396.00 660.25,368.50 660.25,368.50
             660.25,368.50 660.50,363.88 660.50,363.88
             660.50,363.88 657.62,358.50 657.62,358.50
             657.62,358.50 650.00,345.00 650.00,345.00
             650.00,345.00 647.00,341.00 647.00,341.00
             647.00,341.00 642.75,339.12 642.75,339.12
             642.75,339.12 634.88,339.50 634.88,339.50
             634.88,339.50 614.12,339.75 614.12,339.75
             614.12,339.75 606.75,338.75 606.75,338.75
             606.75,338.75 600.88,340.12 600.88,340.12
             600.88,340.12 597.00,345.50 597.00,345.50
             597.00,345.50 590.88,358.38 590.88,358.38
             590.88,358.38 589.00,362.62 589.00,362.62
             589.00,362.62 587.88,393.12 587.88,393.12
             587.88,393.12 587.25,413.25 587.25,413.25
             587.25,413.25 586.88,418.88 586.88,418.88
             586.88,418.88 590.50,422.50 590.50,422.50 Z" />
</svg>
