<?xml version="1.0" encoding="UTF-8" standalone="no"?>
<!DOCTYPE svg PUBLIC "-//W3C//DTD SVG 20010904//EN"
              "http://www.w3.org/TR/2001/REC-SVG-20010904/DTD/svg10.dtd">

<svg xmlns="http://www.w3.org/2000/svg"
     width="11.1111in" height="6.94444in"
     viewBox="0 0 800 500">
  <path id="whole_w_02"
        fill="none" stroke="black" stroke-width="1"
        d="M 195.75,352.62
           C 195.75,352.62 199.88,356.75 199.88,356.75
             199.88,356.75 203.00,357.12 203.00,357.12
             203.00,357.12 264.75,357.12 264.75,357.12
             264.75,357.12 268.25,354.75 268.25,354.75
             268.25,354.75 269.75,351.88 269.75,351.88
             269.75,351.88 269.38,337.88 269.38,337.88
             269.38,337.88 269.62,298.12 269.62,298.12
             269.62,298.12 266.88,292.75 266.88,292.75
             266.88,292.75 258.62,278.12 258.62,278.12
             258.62,278.12 256.00,274.75 256.00,274.75
             256.00,274.75 251.25,273.00 251.25,273.00
             251.25,273.00 243.38,273.75 243.38,273.75
             243.38,273.75 229.88,273.75 229.88,273.75
             229.88,273.75 220.50,273.62 220.50,273.62
             220.50,273.62 215.38,272.88 215.38,272.88
             215.38,272.88 210.38,273.50 210.38,273.50
             210.38,273.50 206.62,277.38 206.62,277.38
             206.62,277.38 198.25,295.12 198.25,295.12
             198.25,295.12 197.62,299.38 197.62,299.38
             197.62,299.38 196.75,330.50 196.75,330.50
             196.75,330.50 195.75,352.62 195.75,352.62 Z" />
</svg>
