<?xml version="1.0" encoding="UTF-8" standalone="no"?>
<!DOCTYPE svg PUBLIC "-//W3C//DTD SVG 20010904//EN"
              "http://www.w3.org/TR/2001/REC-SVG-20010904/DTD/svg10.dtd">

<svg xmlns="http://www.w3.org/2000/svg"
     width="11.1111in" height="6.94444in"
     viewBox="0 0 800 500">
  <path id="whole_up_03"
        fill="none" stroke="black" stroke-width="1"
        d="M 516.50,357.25
           C 516.50,357.25 547.12,357.12 547.12,357.12
             547.12,357.12 579.75,357.25 579.75,357.25
             579.75,357.25 582.38,355.75 582.38,355.75
             582.38,355.75 585.12,352.25 585.12,352.25
             585.12,352.25 584.38,337.75 584.38,337.75
             584.38,337.75 584.25,317.25 584.25,317.25
             584.25,317.25 584.50,297.75 584.50,297.75
             584.50,297.75 580.88,291.75 580.88,291.75
             580.88,291.75 574.00,279.88 574.00,279.88
             574.00,279.88 570.75,274.75 570.75,274.75
             570.75,274.75 566.25,273.00 566.25,273.00
             566.25,273.00 558.88,274.00 558.88,274.00
             558.88,274.00 536.25,274.12 536.25,274.12
             536.25,274.12 531.75,273.00 531.75,273.00
             531.75,273.00 526.38,273.38 526.38,273.38
             526.38,273.38 521.75,276.88 521.75,276.88
             521.75,276.88 519.00,283.25 519.00,283.25
             519.00,283.25 513.12,296.62 513.12,296.62
             513.12,296.62 512.25,317.00 512.25,317.00
             512.25,317.00 512.00,334.62 512.00,334.62
             512.00,334.62 510.88,346.50 510.88,346.50
             510.88,346.50 511.25,353.25 511.25,353.25
             511.25,353.25 513.50,355.75 513.50,355.75
             513.50,355.75 516.50,357.25 516.50,357.25 Z" />
</svg>
