<?xml version="1.0" encoding="UTF-8" standalone="no"?>
<!DOCTYPE svg PUBLIC "-//W3C//DTD SVG 20010904//EN"
              "http://www.w3.org/TR/2001/REC-SVG-20010904/DTD/svg10.dtd">

<svg xmlns="http://www.w3.org/2000/svg"
     width="11.1111in" height="6.94444in"
     viewBox="0 0 800 500">
  <path id="whole_a_03"
        fill="none" stroke="black" stroke-width="1"
        d="M 120.25,419.38
           C 120.25,419.38 122.62,422.25 122.62,422.25
             122.62,422.25 126.12,423.75 126.12,423.75
             126.12,423.75 188.88,423.50 188.88,423.50
             188.88,423.50 191.88,421.25 191.88,421.25
             191.88,421.25 193.75,418.62 193.75,418.62
             193.75,418.62 193.12,391.62 193.12,391.62
             193.12,391.62 193.38,364.00 193.38,364.00
             193.38,364.00 191.75,360.00 191.75,360.00
             191.75,360.00 188.38,354.00 188.38,354.00
             188.38,354.00 183.12,345.25 183.12,345.25
             183.12,345.25 180.88,341.50 180.88,341.50
             180.88,341.50 175.25,338.88 175.25,338.88
             175.25,338.88 167.12,339.75 167.12,339.75
             167.12,339.75 144.75,339.62 144.75,339.62
             144.75,339.62 138.50,339.00 138.50,339.00
             138.50,339.00 132.75,340.62 132.75,340.62
             132.75,340.62 130.00,345.62 130.00,345.62
             130.00,345.62 122.12,361.88 122.12,361.88
             122.12,361.88 121.88,371.25 121.88,371.25
             121.88,371.25 120.25,406.88 120.25,406.88
             120.25,406.88 120.25,419.38 120.25,419.38 Z" />
</svg>
