<?xml version="1.0" encoding="UTF-8" standalone="no"?>
<!DOCTYPE svg PUBLIC "-//W3C//DTD SVG 20010904//EN"
              "http://www.w3.org/TR/2001/REC-SVG-20010904/DTD/svg10.dtd">

<svg xmlns="http://www.w3.org/2000/svg"
     width="11.1111in" height="6.94444in"
     viewBox="0 0 800 500">
  <path id="whole_up_02"
        fill="none" stroke="black" stroke-width="1"
        d="M 513.00,355.25
           C 513.00,355.25 516.62,357.25 516.62,357.25
             516.62,357.25 539.50,357.25 539.50,357.25
             539.50,357.25 572.75,357.62 572.75,357.62
             572.75,357.62 580.50,356.50 580.50,356.50
             580.50,356.50 582.88,354.50 582.88,354.50
             582.88,354.50 584.75,351.75 584.75,351.75
             584.75,351.75 583.75,329.12 583.75,329.12
             583.75,329.12 584.25,302.75 584.25,302.75
             584.25,302.75 583.75,296.38 583.75,296.38
             583.75,296.38 581.50,291.25 581.50,291.25
             581.50,291.25 575.88,282.00 575.88,282.00
             575.88,282.00 572.88,277.38 572.88,277.38
             572.88,277.38 570.00,274.00 570.00,274.00
             570.00,274.00 565.38,273.00 565.38,273.00
             565.38,273.00 557.00,273.88 557.00,273.88
             557.00,273.88 538.00,273.75 538.00,273.75
             538.00,273.75 532.75,272.75 532.75,272.75
             532.75,272.75 525.88,273.25 525.88,273.25
             525.88,273.25 521.88,277.62 521.88,277.62
             521.88,277.62 514.50,292.00 514.50,292.00
             514.50,292.00 512.88,299.50 512.88,299.50
             512.88,299.50 512.50,318.62 512.50,318.62
             512.50,318.62 511.75,333.62 511.75,333.62
             511.75,333.62 511.00,345.75 511.00,345.75
             511.00,345.75 510.75,350.75 510.75,350.75
             510.75,350.75 513.00,355.25 513.00,355.25 Z" />
</svg>
