<?xml version="1.0" encoding="UTF-8" standalone="no"?>
<!DOCTYPE svg PUBLIC "-//W3C//DTD SVG 20010904//EN"
              "http://www.w3.org/TR/2001/REC-SVG-20010904/DTD/svg10.dtd">

<svg xmlns="http://www.w3.org/2000/svg"
     width="11.1111in" height="6.94444in"
     viewBox="0 0 800 500">
  <path id="whole_a_02"
        fill="none" stroke="black" stroke-width="1"
        d="M 121.62,421.50
           C 121.62,421.50 125.00,423.50 125.00,423.50
             125.00,423.50 188.62,423.50 188.62,423.50
             188.62,423.50 191.38,421.62 191.38,421.62
             191.38,421.62 193.50,418.25 193.50,418.25
             193.50,418.25 193.38,392.00 193.38,392.00
             193.38,392.00 193.50,363.62 193.50,363.62
             193.50,363.62 192.00,360.62 192.00,360.62
             192.00,360.62 182.50,344.62 182.50,344.62
             182.50,344.62 180.38,341.25 180.38,341.25
             180.38,341.25 176.00,338.88 176.00,338.88
             176.00,338.88 168.00,339.88 168.00,339.88
             168.00,339.88 155.12,340.00 155.12,340.00
             155.12,340.00 145.12,339.62 145.12,339.62
             145.12,339.62 139.12,338.88 139.12,338.88
             139.12,338.88 134.50,339.50 134.50,339.50
             134.50,339.50 131.12,343.12 131.12,343.12
             131.12,343.12 122.38,362.00 122.38,362.00
             122.38,362.00 121.75,388.62 121.75,388.62
             121.75,388.62 120.50,406.12 120.50,406.12
             120.50,406.12 119.75,417.25 119.75,417.25
             119.75,417.25 121.62,421.50 121.62,421.50 Z" />
</svg>
