<?xml version="1.0" encoding="UTF-8" standalone="no"?>
<!DOCTYPE svg PUBLIC "-//W3C//DTD SVG 20010904//EN"
              "http://www.w3.org/TR/2001/REC-SVG-20010904/DTD/svg10.dtd">

<svg xmlns="http://www.w3.org/2000/svg"
     width="11.1111in" height="6.94444in"
     viewBox="0 0 800 500">
  <path id="whole_s_02"
        fill="none" stroke="black" stroke-width="1"
        d="M 201.38,423.38
           C 201.38,423.38 265.00,423.12 265.00,423.12
             265.00,423.12 268.50,420.75 268.50,420.75
             268.50,420.75 270.00,418.12 270.00,418.12
             270.00,418.12 269.50,396.38 269.50,396.38
             269.50,396.38 269.38,363.62 269.38,363.62
             269.38,363.62 268.12,361.25 268.12,361.25
             268.12,361.25 258.88,344.88 258.88,344.88
             258.88,344.88 255.38,340.25 255.38,340.25
             255.38,340.25 250.75,339.00 250.75,339.00
             250.75,339.00 237.75,340.00 237.75,340.00
             237.75,340.00 222.12,340.12 222.12,340.12
             222.12,340.12 214.50,339.00 214.50,339.00
             214.50,339.00 210.00,340.12 210.00,340.12
             210.00,340.12 206.88,344.25 206.88,344.25
             206.88,344.25 198.75,361.62 198.75,361.62
             198.75,361.62 197.88,364.62 197.88,364.62
             197.88,364.62 196.88,396.12 196.88,396.12
             196.88,396.12 196.12,418.50 196.12,418.50
             196.12,418.50 198.00,421.62 198.00,421.62
             198.00,421.62 201.38,423.38 201.38,423.38 Z" />
</svg>
