<?xml version="1.0" encoding="UTF-8" standalone="no"?>
<!DOCTYPE svg PUBLIC "-//W3C//DTD SVG 20010904//EN"
              "http://www.w3.org/TR/2001/REC-SVG-20010904/DTD/svg10.dtd">

<svg xmlns="http://www.w3.org/2000/svg"
     width="11.1111in" height="6.94444in"
     viewBox="0 0 800 500">
  <path id="whole_down_03"
        fill="none" stroke="black" stroke-width="1"
        d="M 516.88,423.50
           C 516.88,423.50 578.62,423.38 578.62,423.38
             578.62,423.38 582.62,421.12 582.62,421.12
             582.62,421.12 584.50,417.75 584.50,417.75
             584.50,417.75 584.12,372.50 584.12,372.50
             584.12,372.50 584.12,363.75 584.12,363.75
             584.12,363.75 581.12,358.75 581.12,358.75
             581.12,358.75 573.62,344.12 573.62,344.12
             573.62,344.12 570.38,340.75 570.38,340.75
             570.38,340.75 566.38,339.38 566.38,339.38
             566.38,339.38 554.88,339.62 554.88,339.62
             554.88,339.62 535.75,339.75 535.75,339.75
             535.75,339.75 529.75,339.00 529.75,339.00
             529.75,339.00 524.75,340.25 524.75,340.25
             524.75,340.25 521.88,344.50 521.88,344.50
             521.88,344.50 514.12,360.12 514.12,360.12
             514.12,360.12 512.62,364.00 512.62,364.00
             512.62,364.00 512.25,395.75 512.25,395.75
             512.25,395.75 511.38,409.50 511.38,409.50
             511.38,409.50 511.38,419.50 511.38,419.50
             511.38,419.50 513.12,421.62 513.12,421.62
             513.12,421.62 516.88,423.50 516.88,423.50 Z" />
</svg>
