<?xml version="1.0" encoding="UTF-8" standalone="no"?>
<!DOCTYPE svg PUBLIC "-//W3C//DTD SVG 20010904//EN"
              "http://www.w3.org/TR/2001/REC-SVG-20010904/DTD/svg10.dtd">

<svg xmlns="http://www.w3.org/2000/svg"
     width="11.1111in" height="6.94444in"
     viewBox="0 0 800 500">
  <path id="whole_s_01"
        fill="none" stroke="black" stroke-width="1"
        d="M 202.50,423.50
           C 202.50,423.50 263.12,423.38 263.12,423.38
             263.12,423.38 267.38,421.88 267.38,421.88
             267.38,421.88 269.25,418.50 269.25,418.50
             269.25,418.50 269.50,408.88 269.50,408.88
             269.50,408.88 268.88,383.50 268.88,383.50
             268.88,383.50 269.38,363.50 269.38,363.50
             269.38,363.50 267.25,359.75 267.25,359.75
             267.25,359.75 259.00,344.75 259.00,344.75
             259.00,344.75 255.12,340.50 255.12,340.50
             255.12,340.50 251.12,339.38 251.12,339.38
             251.12,339.38 242.25,339.75 242.25,339.75
             242.25,339.75 221.25,339.50 221.25,339.50
             221.25,339.50 214.00,339.12 214.00,339.12
             214.00,339.12 208.88,341.25 208.88,341.25
             208.88,341.25 205.00,348.38 205.00,348.38
             205.00,348.38 198.38,361.88 198.38,361.88
             198.38,361.88 197.50,387.62 197.50,387.62
             197.50,387.62 196.38,407.25 196.38,407.25
             196.38,407.25 195.88,418.62 195.88,418.62
             195.88,418.62 198.12,421.75 198.12,421.75
             198.12,421.75 202.50,423.50 202.50,423.50 Z" />
</svg>
