<?xml version="1.0" encoding="UTF-8" standalone="no"?>
<!DOCTYPE svg PUBLIC "-//W3C//DTD SVG 20010904//EN"
              "http://www.w3.org/TR/2001/REC-SVG-20010904/DTD/svg10.dtd">

<svg xmlns="http://www.w3.org/2000/svg"
     width="11.1111in" height="6.94444in"
     viewBox="0 0 800 500">
  <path id="whole_a_01"
        fill="none" stroke="black" stroke-width="1"
        d="M 120.25,419.12
           C 120.25,419.12 122.00,422.00 122.00,422.00
             122.00,422.00 125.50,423.25 125.50,423.25
             125.50,423.25 188.12,423.50 188.12,423.50
             188.12,423.50 191.38,421.75 191.38,421.75
             191.38,421.75 193.75,418.62 193.75,418.62
             193.75,418.62 193.12,395.12 193.12,395.12
             193.12,395.12 193.50,363.62 193.50,363.62
             193.50,363.62 189.12,355.25 189.12,355.25
             189.12,355.25 182.38,344.00 182.38,344.00
             182.38,344.00 180.38,341.00 180.38,341.00
             180.38,341.00 175.00,339.25 175.00,339.25
             175.00,339.25 165.50,339.88 165.50,339.88
             165.50,339.88 146.88,339.50 146.88,339.50
             146.88,339.50 140.12,338.62 140.12,338.62
             140.12,338.62 134.50,339.62 134.50,339.62
             134.50,339.62 130.75,344.12 130.75,344.12
             130.75,344.12 122.12,361.75 122.12,361.75
             122.12,361.75 121.00,394.00 121.00,394.00
             121.00,394.00 120.12,409.38 120.12,409.38
             120.12,409.38 120.25,419.12 120.25,419.12 Z" />
</svg>
