<?xml version="1.0" encoding="UTF-8" standalone="no"?>
<!DOCTYPE svg PUBLIC "-//W3C//DTD SVG 20010904//EN"
              "http://www.w3.org/TR/2001/REC-SVG-20010904/DTD/svg10.dtd">

<svg xmlns="http://www.w3.org/2000/svg"
     width="11.1111in" height="6.94444in"
     viewBox="0 0 800 500">
  <path id="whole_esc_02"
        fill="none" stroke="black" stroke-width="1"
        d="M 44.75,50.25
           C 44.75,50.25 44.50,70.88 44.50,70.88
             44.50,70.88 42.50,104.00 42.50,104.00
             42.50,104.00 44.12,107.50 44.12,107.50
             44.12,107.50 48.38,109.50 48.38,109.50
             48.38,109.50 111.50,109.38 111.50,109.38
             111.50,109.38 114.62,107.38 114.62,107.38
             114.62,107.38 116.75,104.00 116.75,104.00
             116.75,104.00 117.00,50.50 117.00,50.50
             117.00,50.50 115.75,47.25 115.75,47.25
             115.75,47.25 105.25,29.88 105.25,29.88
             105.25,29.88 103.12,27.12 103.12,27.12
             103.12,27.12 98.50,25.00 98.50,25.00
             98.50,25.00 89.88,25.75 89.88,25.75
             89.88,25.75 69.50,25.62 69.50,25.62
             69.50,25.62 64.12,24.75 64.12,24.75
             64.12,24.75 59.38,24.62 59.38,24.62
             59.38,24.62 54.38,27.62 54.38,27.62
             54.38,27.62 53.00,31.38 53.00,31.38
             53.00,31.38 45.62,46.62 45.62,46.62
             45.62,46.62 44.75,50.25 44.75,50.25 Z" />
</svg>
