<?xml version="1.0" encoding="UTF-8" standalone="no"?>
<!DOCTYPE svg PUBLIC "-//W3C//DTD SVG 20010904//EN"
              "http://www.w3.org/TR/2001/REC-SVG-20010904/DTD/svg10.dtd">

<svg xmlns="http://www.w3.org/2000/svg"
     width="11.1111in" height="6.94444in"
     viewBox="0 0 800 500">
  <path id="whole_ent_01"
        fill="none" stroke="black" stroke-width="1"
        d="M 596.36,193.27
           C 596.36,193.27 698.00,194.36 698.00,194.36
             698.00,194.36 703.64,192.55 703.64,192.55
             703.64,192.55 706.73,190.00 706.73,190.00
             706.73,190.00 705.27,178.91 705.27,178.91
             705.27,178.91 697.45,123.27 697.45,123.27
             697.45,123.27 695.09,111.27 695.09,111.27
             695.09,111.27 693.27,99.82 693.27,99.82
             693.27,99.82 689.64,86.55 689.64,86.55
             689.64,86.55 685.09,72.55 685.09,72.55
             685.09,72.55 682.36,66.73 682.36,66.73
             682.36,66.73 675.82,65.82 675.82,65.82
             675.82,65.82 660.00,67.82 660.00,67.82
             660.00,67.82 639.27,68.36 639.27,68.36
             639.27,68.36 617.82,67.45 617.82,67.45
             617.82,67.45 603.45,65.82 603.45,65.82
             603.45,65.82 594.73,64.55 594.73,64.55
             594.73,64.55 589.09,64.00 589.09,64.00
             589.09,64.00 585.27,67.82 585.27,67.82
             585.27,67.82 579.45,84.73 579.45,84.73
             579.45,84.73 575.64,94.91 575.64,94.91
             575.64,94.91 574.00,102.91 574.00,102.91
             574.00,102.91 572.55,116.91 572.55,116.91
             572.55,116.91 571.09,129.82 571.09,129.82
             571.09,129.82 570.73,136.36 570.73,136.36
             570.73,136.36 575.64,139.45 575.64,139.45
             575.64,139.45 586.36,139.82 586.36,139.82
             586.36,139.82 591.64,143.64 591.64,143.64
             591.64,143.64 591.45,150.36 591.45,150.36
             591.45,150.36 590.18,171.82 590.18,171.82
             590.18,171.82 589.27,184.36 589.27,184.36
             589.27,184.36 590.00,189.82 590.00,189.82
             590.00,189.82 592.73,192.36 592.73,192.36
             592.73,192.36 596.36,193.27 596.36,193.27 Z" />
</svg>
