<?xml version="1.0" encoding="UTF-8" standalone="no"?>
<!DOCTYPE svg PUBLIC "-//W3C//DTD SVG 20010904//EN"
              "http://www.w3.org/TR/2001/REC-SVG-20010904/DTD/svg10.dtd">

<svg xmlns="http://www.w3.org/2000/svg"
     width="11.1111in" height="6.94444in"
     viewBox="0 0 800 500">
  <path id="whole_ent_03"
        fill="none" stroke="black" stroke-width="1"
        d="M 591.09,190.91
           C 591.09,190.91 596.36,193.45 596.36,193.45
             596.36,193.45 648.91,193.82 648.91,193.82
             648.91,193.82 701.27,194.73 701.27,194.73
             701.27,194.73 704.91,192.91 704.91,192.91
             704.91,192.91 706.73,190.55 706.73,190.55
             706.73,190.55 705.45,180.55 705.45,180.55
             705.45,180.55 700.91,148.55 700.91,148.55
             700.91,148.55 696.36,115.09 696.36,115.09
             696.36,115.09 695.09,105.82 695.09,105.82
             695.09,105.82 693.27,97.64 693.27,97.64
             693.27,97.64 689.09,83.82 689.09,83.82
             689.09,83.82 686.55,74.36 686.55,74.36
             686.55,74.36 683.45,68.00 683.45,68.00
             683.45,68.00 678.73,65.64 678.73,65.64
             678.73,65.64 667.45,66.55 667.45,66.55
             667.45,66.55 646.55,67.82 646.55,67.82
             646.55,67.82 625.09,67.27 625.09,67.27
             625.09,67.27 604.91,65.82 604.91,65.82
             604.91,65.82 595.82,64.91 595.82,64.91
             595.82,64.91 591.27,64.18 591.27,64.18
             591.27,64.18 585.82,66.55 585.82,66.55
             585.82,66.55 579.27,85.45 579.27,85.45
             579.27,85.45 575.64,94.91 575.64,94.91
             575.64,94.91 574.00,102.91 574.00,102.91
             574.00,102.91 572.36,116.55 572.36,116.55
             572.36,116.55 570.73,130.55 570.73,130.55
             570.73,130.55 571.27,137.09 571.27,137.09
             571.27,137.09 576.36,139.27 576.36,139.27
             576.36,139.27 588.18,140.00 588.18,140.00
             588.18,140.00 591.45,143.45 591.45,143.45
             591.45,143.45 590.91,161.27 590.91,161.27
             590.91,161.27 589.27,181.27 589.27,181.27
             589.27,181.27 588.73,188.36 588.73,188.36
             588.73,188.36 591.09,190.91 591.09,190.91 Z" />
</svg>
