<?xml version="1.0" encoding="UTF-8" standalone="no"?>
<!DOCTYPE svg PUBLIC "-//W3C//DTD SVG 20010904//EN"
              "http://www.w3.org/TR/2001/REC-SVG-20010904/DTD/svg10.dtd">

<svg xmlns="http://www.w3.org/2000/svg"
     width="11.1111in" height="6.94444in"
     viewBox="0 0 800 500">
  <path id="whole_d_03"
        fill="none" stroke="black" stroke-width="1"
        d="M 274.62,422.00
           C 274.62,422.00 278.12,423.38 278.12,423.38
             278.12,423.38 306.00,423.12 306.00,423.12
             306.00,423.12 336.12,423.88 336.12,423.88
             336.12,423.88 342.88,421.88 342.88,421.88
             342.88,421.88 346.12,417.75 346.12,417.75
             346.12,417.75 345.38,399.00 345.38,399.00
             345.38,399.00 346.00,367.25 346.00,367.25
             346.00,367.25 344.88,361.50 344.88,361.50
             344.88,361.50 340.12,353.75 340.12,353.75
             340.12,353.75 334.62,344.62 334.62,344.62
             334.62,344.62 332.38,341.38 332.38,341.38
             332.38,341.38 329.12,339.12 329.12,339.12
             329.12,339.12 324.75,339.00 324.75,339.00
             324.75,339.00 318.25,340.00 318.25,340.00
             318.25,340.00 297.50,339.62 297.50,339.62
             297.50,339.62 292.75,339.00 292.75,339.00
             292.75,339.00 289.25,338.88 289.25,338.88
             289.25,338.88 285.62,340.62 285.62,340.62
             285.62,340.62 282.62,344.50 282.62,344.50
             282.62,344.50 274.75,360.38 274.75,360.38
             274.75,360.38 274.00,365.62 274.00,365.62
             274.00,365.62 272.88,397.88 272.88,397.88
             272.88,397.88 272.12,411.62 272.12,411.62
             272.12,411.62 271.62,417.12 271.62,417.12
             271.62,417.12 273.12,420.50 273.12,420.50
             273.12,420.50 274.62,422.00 274.62,422.00 Z" />
</svg>
