<?xml version="1.0" encoding="UTF-8" standalone="no"?>
<!DOCTYPE svg PUBLIC "-//W3C//DTD SVG 20010904//EN"
              "http://www.w3.org/TR/2001/REC-SVG-20010904/DTD/svg10.dtd">

<svg xmlns="http://www.w3.org/2000/svg"
     width="11.1111in" height="6.94444in"
     viewBox="0 0 800 500">
  <path id="whole_esc_01"
        fill="none" stroke="black" stroke-width="1"
        d="M 48.25,109.25
           C 48.25,109.25 111.50,109.38 111.50,109.38
             111.50,109.38 116.38,104.38 116.38,104.38
             116.38,104.38 116.75,50.50 116.75,50.50
             116.75,50.50 105.75,30.38 105.75,30.38
             105.75,30.38 102.12,26.00 102.12,26.00
             102.12,26.00 98.00,24.88 98.00,24.88
             98.00,24.88 81.50,26.00 81.50,26.00
             81.50,26.00 60.25,25.00 60.25,25.00
             60.25,25.00 56.50,26.50 56.50,26.50
             56.50,26.50 53.75,29.88 53.75,29.88
             53.75,29.88 45.00,48.50 45.00,48.50
             45.00,48.50 43.00,104.88 43.00,104.88
             43.00,104.88 45.25,107.75 45.25,107.75
             45.25,107.75 48.25,109.25 48.25,109.25 Z" />
</svg>
