<?xml version="1.0" encoding="UTF-8" standalone="no"?>
<!DOCTYPE svg PUBLIC "-//W3C//DTD SVG 20010904//EN"
              "http://www.w3.org/TR/2001/REC-SVG-20010904/DTD/svg10.dtd">

<svg xmlns="http://www.w3.org/2000/svg"
     width="11.1111in" height="6.94444in"
     viewBox="0 0 800 500">
  <path id="whole_w_03"
        fill="none" stroke="black" stroke-width="1"
        d="M 195.75,352.75
           C 195.75,352.75 199.12,356.38 199.12,356.38
             199.12,356.38 205.00,357.62 205.00,357.62
             205.00,357.62 263.38,357.00 263.38,357.00
             263.38,357.00 267.88,355.38 267.88,355.38
             267.88,355.38 270.00,351.50 270.00,351.50
             270.00,351.50 269.50,340.62 269.50,340.62
             269.50,340.62 269.62,298.12 269.62,298.12
             269.62,298.12 267.25,292.50 267.25,292.50
             267.25,292.50 260.50,281.12 260.50,281.12
             260.50,281.12 258.38,277.38 258.38,277.38
             258.38,277.38 255.12,274.00 255.12,274.00
             255.12,274.00 250.38,272.75 250.38,272.75
             250.38,272.75 243.88,273.50 243.88,273.50
             243.88,273.50 232.00,273.88 232.00,273.88
             232.00,273.88 220.50,273.38 220.50,273.38
             220.50,273.38 213.62,272.75 213.62,272.75
             213.62,272.75 209.00,274.50 209.00,274.50
             209.00,274.50 206.25,279.00 206.25,279.00
             206.25,279.00 198.62,294.88 198.62,294.88
             198.62,294.88 197.50,297.50 197.50,297.50
             197.50,297.50 197.38,323.12 197.38,323.12
             197.38,323.12 195.88,345.62 195.88,345.62
             195.88,345.62 195.75,352.75 195.75,352.75 Z" />
</svg>
